# xmcd CD database file
#
# Track frame offsets:
#	150
#	18037
#	31658
#	48608
#	61461
#	86361
#
# Disc length: 1322 seconds
#
# Revision: 0
# Processed by: cddbd v1.5.2PL0 Copyright (c) Steve Scherf et al.
# Submitted via: CDex 1.97
#
DISCID=3c052806
DTITLE=Leo Maier Trio  - Leo Maier Trio 
DYEAR=1900
DGENRE=Blues
TTITLE0=Jumpin with the band
TTITLE1=My king of rocking
TTITLE2=Well baby
TTITLE3=Pack your clothes
TTITLE4=Five Long Years
TTITLE5=T-bone Jumps again
EXTD=
EXTT0=
EXTT1=
EXTT2=
EXTT3=
EXTT4=
EXTT5=
PLAYORDER=
